<svg xmlns="http://www.w3.org/2000/svg" viewBox="0 0 1280 720" width="1280" height="720"
     font-family="-apple-system, BlinkMacSystemFont, 'Segoe UI', sans-serif"
     font-size="12">
    <!--
    Mind Map Chart Template
    Usage: Central theme diverging into multiple branches
    Scenarios: Strategy breakdown, knowledge architecture, brainstorming
    Supports: 1 Center + 4 Branches + 3 Sub-items per branch
    -->
    <!-- Background -->
    <rect width="1280" height="720" fill="#F8FAFC"/>
    <!-- Title -->
    <g id="header" data-pptx-bounds="40 15 1200 125">
        <text x="60" y="65"
              font-size="32" font-weight="800" fill="#0F172A">Product Strategy Mind Map</text>
        <text x="60" y="95"
              font-size="14" font-weight="600" fill="#64748B" letter-spacing="1.5">STRATEGIC BREAKDOWN · FOUR CORE DIMENSIONS</text>
    </g>
    <!-- ===== Branch Skeleton ===== -->
    <g id="branch-skeleton" data-pptx-bounds="120 108 1040 489">
            <circle cx="640" cy="360" r="112" fill="none" stroke="#6366F1" stroke-width="1.5" stroke-opacity="0.12"/>
            <circle cx="640" cy="360" r="160" fill="none" stroke="#6366F1" stroke-width="1.5" stroke-opacity="0.06"/>
            <!-- Main straight relationships: center to branches -->
        <!-- Top Right -->
        <line x1="703" y1="330" x2="930" y2="195" stroke="#10B981" stroke-width="3" stroke-opacity="0.35"/>
        <!-- Bottom Right -->
        <line x1="703" y1="390" x2="930" y2="525" stroke="#F59E0B" stroke-width="3" stroke-opacity="0.35"/>
        <!-- Top Left -->
        <line x1="577" y1="330" x2="350" y2="195" stroke="#3B82F6" stroke-width="3" stroke-opacity="0.35"/>
        <!-- Bottom Left -->
        <line x1="577" y1="390" x2="350" y2="525" stroke="#F43F5E" stroke-width="3" stroke-opacity="0.35"/>
        <!-- ===== Thin Lines: Branches to Sub-items ===== -->
        <!-- Top Right (Product) -->
        <line x1="1050" y1="195" x2="1075" y2="156" stroke="#10B981" stroke-width="1.5" stroke-opacity="0.3"/>
        <line x1="1050" y1="195" x2="1075" y2="200" stroke="#10B981" stroke-width="1.5" stroke-opacity="0.3"/>
        <line x1="1050" y1="195" x2="1075" y2="244" stroke="#10B981" stroke-width="1.5" stroke-opacity="0.3"/>
        <!-- Bottom Right (Market) -->
        <line x1="1050" y1="525" x2="1075" y2="476" stroke="#F59E0B" stroke-width="1.5" stroke-opacity="0.3"/>
        <line x1="1050" y1="525" x2="1075" y2="520" stroke="#F59E0B" stroke-width="1.5" stroke-opacity="0.3"/>
        <line x1="1050" y1="525" x2="1075" y2="564" stroke="#F59E0B" stroke-width="1.5" stroke-opacity="0.3"/>
        <!-- Top Left (Technology) -->
        <line x1="230" y1="195" x2="205" y2="156" stroke="#3B82F6" stroke-width="1.5" stroke-opacity="0.3"/>
        <line x1="230" y1="195" x2="205" y2="200" stroke="#3B82F6" stroke-width="1.5" stroke-opacity="0.3"/>
        <line x1="230" y1="195" x2="205" y2="244" stroke="#3B82F6" stroke-width="1.5" stroke-opacity="0.3"/>
        <!-- Bottom Left (Operations) -->
        <line x1="230" y1="525" x2="205" y2="476" stroke="#F43F5E" stroke-width="1.5" stroke-opacity="0.3"/>
        <line x1="230" y1="525" x2="205" y2="520" stroke="#F43F5E" stroke-width="1.5" stroke-opacity="0.3"/>
            <line x1="230" y1="525" x2="205" y2="564" stroke="#F43F5E" stroke-width="1.5" stroke-opacity="0.3"/>
    </g>
    <!-- ===== Sub-item Cards ===== -->
    <!-- Top Right (Product) Cards -->
    <g id="product-ux-optimization-node" data-pptx-bounds="1052 132 211 48">
        <rect x="1075" y="139" width="165" height="34" rx="6" fill="#FFFFFF" stroke="#E2E8F0" stroke-width="1"/>
        <rect x="1075" y="139" width="5" height="34" rx="2.5" fill="#10B981"/>
        <text x="1090" y="161" font-size="13" font-weight="600" fill="#0F172A">UX Optimization</text>
    </g>
    <g id="product-feature-roadmap-node" data-pptx-bounds="1052 176 211 48">
        <rect x="1075" y="183" width="165" height="34" rx="6" fill="#FFFFFF" stroke="#E2E8F0" stroke-width="1"/>
        <rect x="1075" y="183" width="5" height="34" rx="2.5" fill="#10B981"/>
        <text x="1090" y="205" font-size="13" font-weight="600" fill="#0F172A">Feature Roadmap</text>
    </g>
    <g id="product-quality-standards-node" data-pptx-bounds="1052 220 211 48">
        <rect x="1075" y="227" width="165" height="34" rx="6" fill="#FFFFFF" stroke="#E2E8F0" stroke-width="1"/>
        <rect x="1075" y="227" width="5" height="34" rx="2.5" fill="#10B981"/>
        <text x="1090" y="249" font-size="13" font-weight="600" fill="#0F172A">Quality Standards</text>
    </g>
    <!-- Bottom Right (Market) Cards -->
    <g id="market-brand-positioning-node" data-pptx-bounds="1052 452 211 48">
        <rect x="1075" y="459" width="165" height="34" rx="6" fill="#FFFFFF" stroke="#E2E8F0" stroke-width="1"/>
        <rect x="1075" y="459" width="5" height="34" rx="2.5" fill="#F59E0B"/>
        <text x="1090" y="481" font-size="13" font-weight="600" fill="#0F172A">Brand Positioning</text>
    </g>
    <g id="market-channel-expansion-node" data-pptx-bounds="1052 496 211 48">
        <rect x="1075" y="503" width="165" height="34" rx="6" fill="#FFFFFF" stroke="#E2E8F0" stroke-width="1"/>
        <rect x="1075" y="503" width="5" height="34" rx="2.5" fill="#F59E0B"/>
        <text x="1090" y="525" font-size="13" font-weight="600" fill="#0F172A">Channel Expansion</text>
    </g>
    <g id="market-competitor-analysis-node" data-pptx-bounds="1052 540 211 48">
        <rect x="1075" y="547" width="165" height="34" rx="6" fill="#FFFFFF" stroke="#E2E8F0" stroke-width="1"/>
        <rect x="1075" y="547" width="5" height="34" rx="2.5" fill="#F59E0B"/>
        <text x="1090" y="569" font-size="13" font-weight="600" fill="#0F172A">Competitor Analysis</text>
    </g>
    <!-- Top Left (Technology) Cards (Right Aligned Text) -->
    <g id="technology-architecture-upgrade-node" data-pptx-bounds="17 132 211 48">
        <rect x="40" y="139" width="165" height="34" rx="6" fill="#FFFFFF" stroke="#E2E8F0" stroke-width="1"/>
        <rect x="200" y="139" width="5" height="34" rx="2.5" fill="#3B82F6"/>
        <text x="190" y="161" text-anchor="end" font-size="13" font-weight="600" fill="#0F172A">Architecture Upgrade</text>
    </g>
    <g id="technology-ai-integration-node" data-pptx-bounds="17 176 211 48">
        <rect x="40" y="183" width="165" height="34" rx="6" fill="#FFFFFF" stroke="#E2E8F0" stroke-width="1"/>
        <rect x="200" y="183" width="5" height="34" rx="2.5" fill="#3B82F6"/>
        <text x="190" y="205" text-anchor="end" font-size="13" font-weight="600" fill="#0F172A">AI Integration</text>
    </g>
    <g id="technology-security-compliance-node" data-pptx-bounds="17 220 211 48">
        <rect x="40" y="227" width="165" height="34" rx="6" fill="#FFFFFF" stroke="#E2E8F0" stroke-width="1"/>
        <rect x="200" y="227" width="5" height="34" rx="2.5" fill="#3B82F6"/>
        <text x="190" y="249" text-anchor="end" font-size="13" font-weight="600" fill="#0F172A">Security &amp; Compliance</text>
    </g>
    <!-- Bottom Left (Operations) Cards (Right Aligned Text) -->
    <g id="operations-user-growth-node" data-pptx-bounds="17 452 211 48">
        <rect x="40" y="459" width="165" height="34" rx="6" fill="#FFFFFF" stroke="#E2E8F0" stroke-width="1"/>
        <rect x="200" y="459" width="5" height="34" rx="2.5" fill="#F43F5E"/>
        <text x="190" y="481" text-anchor="end" font-size="13" font-weight="600" fill="#0F172A">User Growth Strategy</text>
    </g>
    <g id="operations-supply-chain-node" data-pptx-bounds="17 496 211 48">
        <rect x="40" y="503" width="165" height="34" rx="6" fill="#FFFFFF" stroke="#E2E8F0" stroke-width="1"/>
        <rect x="200" y="503" width="5" height="34" rx="2.5" fill="#F43F5E"/>
        <text x="190" y="525" text-anchor="end" font-size="13" font-weight="600" fill="#0F172A">Supply Chain Mgt</text>
    </g>
    <g id="operations-data-driven-decisions-node" data-pptx-bounds="17 540 211 48">
        <rect x="40" y="547" width="165" height="34" rx="6" fill="#FFFFFF" stroke="#E2E8F0" stroke-width="1"/>
        <rect x="200" y="547" width="5" height="34" rx="2.5" fill="#F43F5E"/>
        <text x="190" y="569" text-anchor="end" font-size="13" font-weight="600" fill="#0F172A">Data-driven Decisions</text>
    </g>
    <!-- ===== Branch Nodes ===== -->
    <!-- Top Right (Product) -->
    <g id="product-branch-node" data-pptx-bounds="913 163 154 64">
        <rect x="930" y="170" width="120" height="50" rx="25" fill="#10B981"/>
        <text x="990" y="201" text-anchor="middle" font-size="15" font-weight="700" fill="#FFFFFF">Product</text>
    </g>
    <!-- Bottom Right (Market) -->
    <g id="market-branch-node" data-pptx-bounds="913 493 154 64">
        <rect x="930" y="500" width="120" height="50" rx="25" fill="#F59E0B"/>
        <text x="990" y="531" text-anchor="middle" font-size="15" font-weight="700" fill="#FFFFFF">Market</text>
    </g>
    <!-- Top Left (Technology) -->
    <g id="technology-branch-node" data-pptx-bounds="213 163 154 64">
        <rect x="230" y="170" width="120" height="50" rx="25" fill="#3B82F6"/>
        <text x="290" y="201" text-anchor="middle" font-size="15" font-weight="700" fill="#FFFFFF">Technology</text>
    </g>
    <!-- Bottom Left (Operations) -->
    <g id="operations-branch-node" data-pptx-bounds="213 493 154 64">
        <rect x="230" y="500" width="120" height="50" rx="25" fill="#F43F5E"/>
        <text x="290" y="531" text-anchor="middle" font-size="15" font-weight="700" fill="#FFFFFF">Operations</text>
    </g>
    <!-- ===== Center Node ===== -->
    <g id="strategy-core-node" data-pptx-bounds="544 273 192 174">
        <circle cx="640" cy="360" r="75" fill="#4F46E5"/>
        <text x="640" y="352" text-anchor="middle" font-size="22" font-weight="800" fill="#FFFFFF">Product</text>
        <text x="640" y="380" text-anchor="middle" font-size="22" font-weight="800" fill="#FFFFFF">Strategy</text>
    </g>
    <!-- Footer -->
    <g id="source" data-pptx-bounds="40 676 1200 39">
        <text x="640" y="700" text-anchor="middle" font-size="13" font-weight="500" fill="#94A3B8">
            Core theme branching into four primary dimensions, each expanding into specific strategic initiatives.
        </text>
    </g>
</svg>
